<?xml version="1.0" encoding="utf-8"?>
<!-- Generator: Adobe Illustrator 30.6.0, SVG Export Plug-In . SVG Version: 9.03 Build 0)  -->
<svg version="1.0" id="Camada_1" xmlns="http://www.w3.org/2000/svg" xmlns:xlink="http://www.w3.org/1999/xlink" x="0px" y="0px"
	 viewBox="0 0 1080 1080" style="enable-background:new 0 0 1080 1080;" xml:space="preserve">
<path d="M808.25,475.01v0.25c-306.68-7.7-223.82-179.92-236.17-401.1h-38.43c-6.65,214.61,51.91,394.2-245.41,400.83l-0.01,0.02
	c-14.28,0-55.13,0-69.97,0v35.94c405.41-23.68,301.96,165.61,304.88,494.89c20.02-0.08,40.04-0.16,60.05-0.23
	c0.33-289.75-90.25-521.68,278.55-494.18v-36.42H808.25z M556.58,601.59c-17.4-57.15-47.21-90.13-107.01-109.64
	c125.43-55.08,39.19-87.4,162.48,25.27C585.01,538.02,567.45,566.57,556.58,601.59z"/>
</svg>
