<svg xmlns="http://www.w3.org/2000/svg" viewBox="0 0 24 24" fill="currentColor" aria-hidden="true"><path d="M12 2.2c3.2 0 3.58.01 4.85.07 1.17.05 1.8.25 2.23.41.56.22.96.48 1.38.9.42.42.68.82.9 1.38.16.42.36 1.06.41 2.23.06 1.27.07 1.65.07 4.85s-.01 3.58-.07 4.85c-.05 1.17-.25 1.8-.41 2.23-.22.56-.48.96-.9 1.38-.42.42-.82.68-1.38.9-.42.16-1.06.36-2.23.41-1.27.06-1.65.07-4.85.07s-3.58-.01-4.85-.07c-1.17-.05-1.8-.25-2.23-.41-.56-.22-.96-.48-1.38-.9-.42-.42-.68-.82-.9-1.38-.16-.42-.36-1.06-.41-2.23-.06-1.27-.07-1.65-.07-4.85s.01-3.58.07-4.85c.05-1.17.25-1.8.41-2.23.22-.56.48-.96.9-1.38.42-.42.82-.68 1.38-.9.42-.16 1.06-.36 2.23-.41C8.42 2.21 8.8 2.2 12 2.2zm0-2.2C8.74 0 8.33.01 7.05.07 5.78.13 4.9.33 4.14.63c-.8.31-1.47.72-2.14 1.39C1.33 2.69.92 3.36.61 4.16c-.3.76-.5 1.64-.56 2.91C-.01 8.35 0 8.76 0 12s-.01 3.65.05 4.93c.06 1.27.26 2.15.56 2.91.31.8.72 1.47 1.39 2.14.67.67 1.34 1.08 2.14 1.39.76.3 1.64.5 2.91.56C8.35 23.99 8.76 24 12 24s3.65-.01 4.93-.07c1.27-.06 2.15-.26 2.91-.56.8-.31 1.47-.72 2.14-1.39.67-.67 1.08-1.34 1.39-2.14.3-.76.5-1.64.56-2.91.06-1.28.07-1.69.07-4.93s-.01-3.65-.07-4.93c-.06-1.27-.26-2.15-.56-2.91-.31-.8-.72-1.47-1.39-2.14C21.31 1.33 20.64.92 19.84.61c-.76-.3-1.64-.5-2.91-.56C15.65.01 15.24 0 12 0z"/><path d="M12 5.84A6.16 6.16 0 1 0 18.16 12 6.16 6.16 0 0 0 12 5.84zm0 10.16A4 4 0 1 1 16 12a4 4 0 0 1-4 4z"/><circle cx="18.41" cy="5.59" r="1.44"/></svg>
