<svg xmlns="http://www.w3.org/2000/svg" viewBox="0 0 24 24" fill="currentColor" aria-hidden="true"><path d="M12 0a12 12 0 1 0 12 12A12 12 0 0 0 12 0zm5.5 17.3a.75.75 0 0 1-1.03.25c-2.82-1.72-6.37-2.11-10.55-1.16a.75.75 0 1 1-.33-1.46c4.58-1.04 8.5-.6 11.66 1.34.36.22.47.7.25 1.03zm1.47-3.27a.94.94 0 0 1-1.29.31c-3.23-1.99-8.15-2.56-11.97-1.4a.94.94 0 1 1-.55-1.8c4.37-1.33 9.8-.68 13.5 1.6a.94.94 0 0 1 .31 1.29zm.13-3.4C15.8 8.3 9.9 8.1 6.4 9.17a1.13 1.13 0 1 1-.66-2.16c4.02-1.22 10.6-.98 14.79 1.53a1.13 1.13 0 1 1-1.16 1.94z"/></svg>
