<svg xmlns="http://www.w3.org/2000/svg" viewBox="0 0 24 24" fill="currentColor" aria-hidden="true"><path d="M12.04 0C5.44 0 .09 5.35.09 11.95c0 2.1.55 4.16 1.6 5.97L0 24l6.24-1.64a11.9 11.9 0 0 0 5.8 1.48h.01c6.6 0 11.95-5.35 11.95-11.95C24 5.35 18.65 0 12.04 0zm0 21.86h-.01a9.9 9.9 0 0 1-5.05-1.38l-.36-.21-3.7.97.99-3.61-.24-.37a9.87 9.87 0 0 1-1.52-5.31c0-5.46 4.44-9.9 9.9-9.9 2.64 0 5.13 1.03 6.99 2.9a9.83 9.83 0 0 1 2.9 6.99c0 5.46-4.45 9.91-9.9 9.91zm5.43-7.42c-.3-.15-1.76-.87-2.03-.97-.27-.1-.47-.15-.67.15-.2.3-.77.97-.94 1.17-.17.2-.35.22-.65.07-.3-.15-1.24-.46-2.36-1.46-.87-.78-1.46-1.74-1.63-2.04-.17-.3-.02-.46.13-.6.13-.13.3-.35.45-.52.15-.17.2-.3.3-.5.1-.2.05-.37-.02-.52-.07-.15-.67-1.62-.92-2.22-.24-.58-.49-.5-.67-.51h-.57c-.2 0-.52.07-.79.37-.27.3-1.04 1.02-1.04 2.48s1.07 2.87 1.22 3.07c.15.2 2.1 3.2 5.08 4.49.71.31 1.26.49 1.69.63.71.22 1.36.19 1.87.12.57-.08 1.76-.72 2.01-1.42.25-.7.25-1.3.17-1.42-.07-.13-.27-.2-.57-.35z"/></svg>
